<svg xmlns="http://www.w3.org/2000/svg" style="display: none;">
    <symbol id="circle-icon" viewBox="0 0 64 64">
      <title>circle-icon icon</title>
      <title>circle-icon</title><desc>Created with bin/sketchtool.</desc><circle cx="32" cy="32" r="16" fill="#000"/>
    </symbol>
    <symbol id="circle-outline-icon" viewBox="0 0 64 64">
      <title>circle-outline-icon icon</title>
      <title>circle-outline-icon</title><desc>Created with bin/sketchtool.</desc><path d="M32 48c8.837 0 16-7.163 16-16s-7.163-16-16-16-16 7.163-16 16 7.163 16 16 16zm0-5c6.075 0 11-4.925 11-11s-4.925-11-11-11-11 4.925-11 11 4.925 11 11 11z" fill="#000"/>
    </symbol>
    <symbol id="pentagon-icon" viewBox="0 0 64 64">
      <title>pentagon-icon icon</title>
      <title>pentagon-icon</title><desc>Created with bin/sketchtool.</desc><path d="M32 16l15.217 11.056-5.812 17.888h-18.81l-5.812-17.888z" fill="#000"/>
    </symbol>
    <symbol id="rounded-rectangle-icon" viewBox="0 0 64 64">
      <title>rounded-rectangle-icon icon</title>
      <title>rounded-rectangle-icon</title><desc>Created with bin/sketchtool.</desc><rect x="16" y="16" width="32" height="32" rx="8" fill="#000"/>
    </symbol>
    <symbol id="star-icon" viewBox="0 0 64 64">
      <title>star-icon icon</title>
      <title>star-icon</title><desc>Created with bin/sketchtool.</desc><path d="M32 40l-9.405 4.944 1.797-10.472-7.61-7.416L27.3 25.528 32 16l4.702 9.528 10.515 1.528-7.61 7.416 1.798 10.472z" fill="#000"/>
    </symbol>
    <symbol id="triangle-icon" viewBox="0 0 64 64">
      <title>triangle-icon icon</title>
      <title>triangle-icon</title><desc>Created with bin/sketchtool.</desc><path d="M32 16l16 32H16z" fill="#000"/>
    </symbol></svg>